<?xml version="1.0" encoding="utf-8"?>
<!-- Generator: Adobe Illustrator 27.7.0, SVG Export Plug-In . SVG Version: 6.00 Build 0)  -->
<svg version="1.1" id="Capa_1" xmlns="http://www.w3.org/2000/svg" xmlns:xlink="http://www.w3.org/1999/xlink" x="0px" y="0px"
	 viewBox="0 0 33 31" style="enable-background:new 0 0 33 31;" xml:space="preserve">
<style type="text/css">
	.st0{fill:#FF3333;}
</style>
<path class="st0" d="M12.5,31c1.4,0,2.5-1.1,2.5-2.5S13.9,26,12.5,26S10,27.1,10,28.5S11.1,31,12.5,31z"/>
<path class="st0" d="M25.5,31c1.4,0,2.5-1.1,2.5-2.5S26.9,26,25.5,26S23,27.1,23,28.5S24.1,31,25.5,31z"/>
<path class="st0" d="M32.4,4.6c-0.1-0.1-0.2-0.2-0.4-0.3c-0.1-0.1-0.3-0.1-0.5-0.1H7.5L7,2.7C7,2.5,6.9,2.4,6.8,2.2
	C6.6,2.1,6.5,2,6.3,2L2.1,0.7c-0.1,0-0.3-0.1-0.4,0c-0.1,0-0.3,0.1-0.4,0.1C1,0.9,0.8,1.1,0.7,1.4S0.7,1.9,0.8,2.2
	C1,2.4,1.2,2.6,1.4,2.7l3.7,1.1L10,18.9l-1.7,1.4l-0.1,0.1c-0.4,0.5-0.7,1.1-0.7,1.8c0,0.6,0.2,1.3,0.6,1.8c0.3,0.3,0.6,0.6,1.1,0.8
	C9.5,25,10,25.1,10.4,25h17.4c0.3,0,0.5-0.1,0.7-0.3c0.2-0.2,0.3-0.5,0.3-0.7c0-0.3-0.1-0.5-0.3-0.7c-0.2-0.2-0.5-0.3-0.7-0.3H10.2
	c-0.1,0-0.2,0-0.3-0.1c-0.1-0.1-0.2-0.2-0.2-0.3c-0.1-0.1-0.1-0.2-0.1-0.3s0-0.2,0.1-0.3l2.5-2.1h16.1c0.2,0,0.5-0.1,0.7-0.2
	c0.2-0.1,0.3-0.3,0.4-0.6l3.3-13.6c0-0.2,0-0.3,0-0.5C32.6,4.8,32.6,4.7,32.4,4.6z"/>
</svg>
